<svg width="26" height="26" viewBox="0 0 26 26" fill="none" xmlns="http://www.w3.org/2000/svg">
<path d="M17.0594 18.1375L19.1594 16.0375C19.4423 15.7582 19.8001 15.567 20.1895 15.4871C20.5789 15.4072 20.9832 15.4421 21.3532 15.5875L23.9125 16.6094C24.2864 16.7612 24.607 17.0202 24.8339 17.3539C25.0608 17.6876 25.1838 18.0809 25.1875 18.4844V23.1719C25.1854 23.4464 25.1277 23.7176 25.0179 23.9692C24.9082 24.2208 24.7486 24.4476 24.5489 24.6359C24.3492 24.8242 24.1135 24.9702 23.8559 25.065C23.5983 25.1598 23.3242 25.2015 23.05 25.1875C5.11566 24.0719 1.49691 8.88441 0.812534 3.07191C0.780765 2.78648 0.809791 2.49755 0.897704 2.22414C0.985617 1.95073 1.13042 1.69903 1.3226 1.4856C1.51477 1.27218 1.74996 1.10186 2.01268 0.985848C2.27541 0.869841 2.55972 0.810776 2.84691 0.812538H7.37503C7.77911 0.813734 8.17358 0.935789 8.50772 1.163C8.84186 1.39022 9.10038 1.7122 9.25003 2.08754L10.2719 4.64691C10.4221 5.01542 10.4605 5.42002 10.3821 5.81017C10.3037 6.20033 10.1122 6.55875 9.83128 6.84066L7.73128 8.94066C7.73128 8.94066 8.94066 17.125 17.0594 18.1375Z" fill="#D89C28"/>
</svg>
